# xmcd CD database file
#
# Track frame offsets:
#	150
#	16339
#	31245
#	45130
#	58870
#	70868
#	82717
#	97664
#	111361
#	126133
#	157237
#	171782
#	186453
#	201277
#	215228
#	228550
#	240357
#	253057
#
# Disc length: 3569 seconds
#
# Revision: 0
# Processed by: cddbd v1.5PL3 Copyright (c) Steve Scherf et al.
# Submitted via: CDex 1.51
#
DISCID=f30def12
DTITLE=Various Artist - Swing Out Jazz
DYEAR=2000
DGENRE=Jazz
TTITLE0=Glenn Miller-In the mood
TTITLE1=Woody Herman-Apple Honey
TTITLE2=Johnny Long-A shanty in old shanty town
TTITLE3=Count Basie-One o'clock jump
TTITLE4=Benny Goodman-Rose of Washington square
TTITLE5=Charlie Barnet-Charleston Alley
TTITLE6=Glenn Miller-American patrol
TTITLE7=Duke Ellington-Take the "A" train
TTITLE8=Woody Herman-Foor brothers
TTITLE9=Lionel Hampton-Glad hamp
TTITLE10=Gene Krupa-Buggle call rag
TTITLE11=Woody Herman-Northwest passage
TTITLE12=Glenn  Miller-Pennsylvania 6-5000
TTITLE13=Tony Pastor-Frenesi
TTITLE14=Tommy Dorsey-Opus No. 1
TTITLE15=Glenn Miller-Sun Valley Lump
TTITLE16=Dukke Ellington and his orchestra-Caravan
TTITLE17=Woody Herman-At the woodshopper's ball
EXTD=YEAR: 2000
EXTT0=
EXTT1=
EXTT2=
EXTT3=
EXTT4=
EXTT5=
EXTT6=
EXTT7=
EXTT8=
EXTT9=
EXTT10=
EXTT11=
EXTT12=
EXTT13=
EXTT14=
EXTT15=
EXTT16=
EXTT17=
PLAYORDER=
